<?xml version="1.0" encoding="utf-8"?>
<!-- Generator: Adobe Illustrator 25.4.1, SVG Export Plug-In . SVG Version: 6.00 Build 0)  -->
<svg version="1.1" id="Layer_1" xmlns="http://www.w3.org/2000/svg" xmlns:xlink="http://www.w3.org/1999/xlink" x="0px" y="0px"
	 viewBox="0 0 200 356" style="enable-background:new 0 0 200 356;" xml:space="preserve">
<style type="text/css">
	.st0{display:none;}
	.st1{display:inline;}
	.st2{display:inline;fill:#FFFFFF;}
	.st3{fill:#5E5E5E;}
	.st4{fill:#FFFFFF;}
</style>
<g id="Layer_7" class="st0">
	<path class="st1" d="M-17.3,301.5c12.2-12.5,72.4-72.2,72.4-72.2s20.1,19.3,38.7,17.7s50.8-36.2,50.8-36.2l-52.3-52h0.1l-52-52.4
		c0,0-34.6,32.1-36.2,50.8c-1.7,18.6,17.6,38.7,17.6,38.7s-59.8,60.2-72.3,72.3c0,0-14.8,19.9,0,33.4S-17.3,301.5-17.3,301.5z"/>
	<circle class="st2" cx="-31.9" cy="280.9" r="11"/>
</g>
<g id="Layer_8" class="st0">
	<rect x="35.1" y="104.2" class="st1" width="114.5" height="283.2"/>
</g>
<g id="Layer_1_00000170237742346334748080000012231753062942776199_" class="st0">
	<polygon class="st1" points="149,82.1 34.5,82.1 10.7,-5.5 174.9,-5.5 	"/>
</g>
<rect x="39.6" y="158" class="st3" width="132.9" height="101.7"/>
<polyline class="st4" points="39.6,90 39.7,142 172,142.5 173,53 75.3,54.3 39.6,90 "/>
<g id="Layer_12" class="st0">
	<polygon class="st1" points="149,59.6 34.5,59.6 88.1,-28.1 100,-28.1 	"/>
	<rect x="34.5" y="59.6" class="st1" width="114.7" height="22.6"/>
</g>
<g id="Layer_9" class="st0">
	<polygon class="st1" points="149,82.1 34.5,82.1 3.4,-32.5 174.9,-5.5 	"/>
</g>
<g id="Layer_10" class="st0">
	<polygon class="st1" points="149.6,82.1 35.1,82.1 61.5,-18.9 128.8,-18.9 	"/>
	<circle class="st1" cx="96.2" cy="-62.1" r="29.6"/>
</g>
<g id="Layer_11" class="st0">
	<polygon class="st1" points="149.2,85 34.6,85 61,-16 128.3,-16 	"/>
	<rect x="74.1" y="-106" class="st1" width="40.5" height="73.5"/>
</g>
<g id="Layer_3" class="st0">
	<g class="st1">
		<path d="M149.1,34.3L147,81.9H95.4H84l0,0H34.6V34.3c1.2-26.4,57.7-66.4,57.7-66.4S150.3,7.9,149.1,34.3z"/>
		<path d="M95.5,81.9c-1.9,0.1-3.8,0.2-5.7,0.2c-1.9,0-3.8-0.1-5.7-0.2H95.5z"/>
	</g>
	<rect x="34.6" y="34.2" class="st1" width="114.5" height="47.7"/>
</g>
<g id="Layer_2_00000091734877990674171280000018227397185877583011_" class="st0">
	<polygon class="st1" points="156.6,197 53.7,94.1 103.3,-5.1 267.6,148.4 	"/>
</g>
<g id="Layer_4" class="st0">
	<polygon class="st1" points="156.6,197 53.7,94.1 144.5,33.9 216.2,100.5 	"/>
	<ellipse class="st1" cx="216.2" cy="23.8" rx="39" ry="39"/>
</g>
<g id="Layer_5" class="st0">
	<polygon class="st1" points="156.6,197 53.7,94.1 144.5,33.9 216.2,100.5 	"/>
	<rect x="179.5" y="6.8" transform="matrix(0.666 -0.746 0.746 0.666 56.6786 172.1302)" class="st1" width="82.1" height="31.9"/>
</g>
<g id="Layer_6" class="st0">
	<polygon class="st1" points="156.6,197 53.7,94.1 191.3,41.5 205.7,55.9 	"/>
</g>
</svg>
