<?xml version="1.0" encoding="utf-8"?>
<!-- Generator: Adobe Illustrator 25.4.1, SVG Export Plug-In . SVG Version: 6.00 Build 0)  -->
<svg version="1.1" id="Layer_1" xmlns="http://www.w3.org/2000/svg" xmlns:xlink="http://www.w3.org/1999/xlink" x="0px" y="0px"
	 viewBox="0 0 250 595.3" style="enable-background:new 0 0 250 595.3;" xml:space="preserve">
<style type="text/css">
	.st0{display:none;}
	.st1{display:inline;}
	.st2{display:inline;fill:#FFFFFF;}
</style>
<g id="Layer_7" class="st0">
	<path class="st1" d="M16.7,442.1c12.2-12.5,72.4-72.2,72.4-72.2s20.1,19.3,38.7,17.7c18.6-1.6,50.8-36.2,50.8-36.2l-52.3-52h0.1
		l-52-52.4c0,0-34.6,32.1-36.2,50.8c-1.7,18.6,17.6,38.7,17.6,38.7S-4,396.7-16.5,408.8c0,0-14.8,19.9,0,33.4S16.7,442.1,16.7,442.1
		z"/>
	<circle class="st2" cx="2.1" cy="421.5" r="11"/>
</g>
<g id="Layer_8">
	<rect x="66.8" y="247.1" width="114.5" height="283.2"/>
</g>
<g id="Layer_1_00000049936269175397678130000016449970567288707248_" class="st0">
	<polygon class="st1" points="183,222.8 68.5,222.8 44.7,135.1 208.9,135.1 	"/>
</g>
<g id="Layer_12">
	<polygon points="180.7,202.5 66.2,202.5 119.8,114.9 131.7,114.9 	"/>
	<rect x="66.2" y="202.5" width="114.7" height="22.6"/>
</g>
<g id="Layer_9" class="st0">
	<polygon class="st1" points="183,222.8 68.5,222.8 37.4,108.1 208.9,135.1 	"/>
</g>
<g id="Layer_10" class="st0">
	<polygon class="st1" points="183.6,222.8 69.1,222.8 95.5,121.7 162.8,121.7 	"/>
	<circle class="st1" cx="130.2" cy="78.6" r="29.6"/>
</g>
<g id="Layer_11" class="st0">
	<polygon class="st1" points="183.2,225.7 68.6,225.7 95,124.6 162.3,124.6 	"/>
	<rect x="108.1" y="34.6" class="st1" width="40.5" height="73.5"/>
</g>
<g id="Layer_3" class="st0">
	<g class="st1">
		<path d="M183.1,175l-2.1,47.6h-51.6H118l0,0H68.6V175c1.2-26.4,57.7-66.4,57.7-66.4S184.3,148.6,183.1,175z"/>
		<path d="M129.5,222.5c-1.9,0.1-3.8,0.2-5.7,0.2c-1.9,0-3.8-0.1-5.7-0.2H129.5z"/>
	</g>
	<rect x="68.6" y="174.8" class="st1" width="114.5" height="47.7"/>
</g>
<g id="Layer_2_00000075855459832716764140000013020228738835178158_" class="st0">
	<polygon class="st1" points="190.6,337.7 87.7,234.8 137.3,135.6 301.6,289 	"/>
</g>
<g id="Layer_4" class="st0">
	<polygon class="st1" points="190.6,337.7 87.7,234.8 178.5,174.5 250.2,241.1 	"/>
	<ellipse transform="matrix(0.7071 -0.7071 0.7071 0.7071 -43.0376 225.0989)" class="st1" cx="250.2" cy="164.5" rx="39" ry="39"/>
</g>
<g id="Layer_5" class="st0">
	<polygon class="st1" points="190.6,337.7 87.7,234.8 178.5,174.5 250.2,241.1 	"/>
	
		<rect x="213.5" y="147.4" transform="matrix(0.666 -0.746 0.746 0.666 -36.8286 244.4566)" class="st1" width="82.1" height="31.9"/>
</g>
<g id="Layer_6" class="st0">
	<polygon class="st1" points="190.6,337.7 87.7,234.8 225.3,182.2 239.7,196.5 	"/>
</g>
</svg>
