<?xml version="1.0" encoding="utf-8"?>
<!-- Generator: Adobe Illustrator 25.4.1, SVG Export Plug-In . SVG Version: 6.00 Build 0)  -->
<svg version="1.1" id="Layer_1" xmlns="http://www.w3.org/2000/svg" xmlns:xlink="http://www.w3.org/1999/xlink" x="0px" y="0px"
	 viewBox="0 0 250 500" style="enable-background:new 0 0 250 500;" xml:space="preserve">
<style type="text/css">
	.st0{display:none;}
	.st1{display:inline;}
	.st2{display:inline;fill:#FFFFFF;}
	.st3{fill:#EDEDED;}
</style>
<g id="Layer_7" class="st0">
	<path class="st1" d="M16.7,394.5c12.2-12.5,72.4-72.2,72.4-72.2s20.1,19.3,38.7,17.7c18.6-1.6,50.8-36.2,50.8-36.2l-52.3-52h0.1
		l-52-52.4c0,0-34.6,32.1-36.2,50.8c-1.7,18.6,17.6,38.7,17.6,38.7S-4,349.1-16.5,361.2c0,0-14.8,19.9,0,33.4S16.7,394.5,16.7,394.5
		z"/>
	<circle class="st2" cx="2.1" cy="373.9" r="11"/>
</g>
<g id="Layer_8">
	<rect x="69.1" y="197.2" class="st3" width="114.5" height="283.2"/>
</g>
<g id="Layer_1_00000019669711413328772660000016491448516281035692_" class="st0">
	<polygon class="st1" points="183,175.1 68.5,175.1 44.7,87.5 208.9,87.5 	"/>
</g>
<g id="Layer_12" class="st0">
	<polygon class="st1" points="183,152.6 68.5,152.6 122.1,64.9 134,64.9 	"/>
	<rect x="68.5" y="152.6" class="st1" width="114.7" height="22.6"/>
</g>
<g id="Layer_9" class="st0">
	<polygon class="st1" points="183,175.1 68.5,175.1 37.4,60.5 208.9,87.5 	"/>
</g>
<g id="Layer_10" class="st0">
	<polygon class="st1" points="183.6,175.1 69.1,175.1 95.5,74.1 162.8,74.1 	"/>
	<circle class="st1" cx="130.2" cy="30.9" r="29.6"/>
</g>
<g id="Layer_11" class="st0">
	<polygon class="st1" points="183.2,178 68.6,178 95,77 162.3,77 	"/>
	<rect x="108.1" y="-13" class="st1" width="40.5" height="73.5"/>
</g>
<g id="Layer_3">
	<g>
		<path class="st3" d="M183.1,127.3l-2.1,47.6h-51.6H118l0,0H68.6v-47.6c1.2-26.4,57.7-66.4,57.7-66.4S184.3,100.9,183.1,127.3z"/>
		<path class="st3" d="M129.5,174.9c-1.9,0.1-3.8,0.2-5.7,0.2c-1.9,0-3.8-0.1-5.7-0.2H129.5z"/>
	</g>
	<rect x="68.6" y="127.2" class="st3" width="114.5" height="47.7"/>
</g>
<g id="Layer_2_00000139986058347107448230000003650107507074941587_" class="st0">
	<polygon class="st1" points="190.6,290 87.7,187.1 137.3,87.9 301.6,241.4 	"/>
</g>
<g id="Layer_4" class="st0">
	<polygon class="st1" points="190.6,290 87.7,187.1 178.5,126.9 250.2,193.5 	"/>
	<ellipse transform="matrix(0.1602 -0.9871 0.9871 0.1602 94.8306 345.06)" class="st1" cx="250.2" cy="116.8" rx="39" ry="39"/>
</g>
<g id="Layer_5" class="st0">
	<polygon class="st1" points="190.6,290 87.7,187.1 178.5,126.9 250.2,193.5 	"/>
	<rect x="213.5" y="99.8" transform="matrix(0.666 -0.746 0.746 0.666 -1.2964 228.5804)" class="st1" width="82.1" height="31.9"/>
</g>
<g id="Layer_6" class="st0">
	<polygon class="st1" points="190.6,290 87.7,187.1 225.3,134.5 239.7,148.9 	"/>
</g>
</svg>
